# xmcd
#
# Track frame offsets:
#	200
#	16770
#	30447
#	44142
#	57302
#	70692
#	85030
#	98412
#	112252
#	123795
#	136420
#	147292
#	160470
#	173055
#
# Disc length: 2426 seconds
# Revision: 1
# Processed by: cddbd v1.5.2PL0 Copyright (c) Steve Scherf et al.
# Submitted via: dBpowerAMP V12.0
#
DISCID=b609780e
DTITLE=Brothers Of Soul - I Guess That Don't Make Me A Loser [Collectables COL-CD-5520]
DYEAR=1995
DGENRE=Soul
TTITLE0=Try It Babe
TTITLE1=Candy
TTITLE2=Dream
TTITLE3=One Minute Baby
TTITLE4=Love Is Fever
TTITLE5=You Better Believe It
TTITLE6=A Lifetime
TTITLE7=Wait For Me
TTITLE8=I'd Be Grateful
TTITLE9=The Love I Found In You
TTITLE10=Come On Back
TTITLE11=I Guess That Don't Make Me A Loser
TTITLE12=Hurry, Don't Linger
TTITLE13=Can't Get You Off Of My Mind
EXTD=
EXTT0=
EXTT1=
EXTT2=
EXTT3=
EXTT4=
EXTT5=
EXTT6=
EXTT7=
EXTT8=
EXTT9=
EXTT10=
EXTT11=
EXTT12=
EXTT13=
PLAYORDER=
